<?xml version="1.0" encoding="UTF-8"?>
<svg id="Ebene_1" xmlns="http://www.w3.org/2000/svg" width="615.12" height="103.04" version="1.1" viewBox="0 0 615.12 103.04" preserveAspectRatio="none">
  <!-- Generator: Adobe Illustrator 30.3.0, SVG Export Plug-In . SVG Version: 2.1.3 Build 182)  -->
  <defs>
    <style>
      .st0 {
        fill: #eef1f5;
      }
    </style>
  </defs>
  <path class="st0" d="M47.44,66.71c-3.12,0-5.82,2.18-6.47,5.24l-4.52,21.26h4.12c3.12,0,5.82-2.18,6.46-5.24l4.52-21.26h-4.12,0ZM113.81,66.71c-3.12,0-5.81,2.18-6.46,5.24l-4.52,21.26h4.12c3.12,0,5.82-2.18,6.47-5.24l4.52-21.26h-4.13ZM147,66.71c-3.12,0-5.82,2.18-6.47,5.24l-4.52,21.26h4.12c3.12,0,5.82-2.18,6.47-5.24l4.52-21.26h-4.12ZM163.56,66.71c-3.12,0-5.82,2.18-6.47,5.24l-4.52,21.26h4.12c3.12,0,5.82-2.18,6.47-5.24l4.52-21.26h-4.12ZM246.48,66.71c-3.12,0-5.82,2.18-6.47,5.24l-4.52,21.26h4.12c3.12,0,5.82-2.18,6.47-5.24l4.52-21.26h-4.12ZM346,66.71c-3.12,0-5.82,2.18-6.46,5.24l-4.52,21.26h4.12c3.12,0,5.82-2.18,6.47-5.24l4.52-21.26h-4.13ZM379.16,66.71c-3.12,0-5.82,2.18-6.47,5.24l-4.52,21.26h4.12c3.12,0,5.82-2.18,6.47-5.24l4.52-21.26h-4.12ZM462.09,66.71c-3.12,0-5.82,2.18-6.47,5.24l-4.52,21.26h4.12c3.12,0,5.82-2.18,6.47-5.24l4.52-21.26h-4.12ZM545.02,66.71c-3.12,0-5.82,2.18-6.47,5.24l-4.52,21.26h4.12c3.12,0,5.82-2.18,6.47-5.24l4.52-21.26h-4.12ZM578.19,66.71c-3.12,0-5.82,2.18-6.46,5.24l-4.52,21.26h4.12c3.12,0,5.82-2.18,6.47-5.24l4.52-21.26h-4.13ZM66.85,53.48c-3.12,0-5.82,2.18-6.46,5.24l-7.33,34.49h4.12c3.12,0,5.82-2.18,6.47-5.24l7.33-34.49h-4.13ZM216.13,53.48c-3.12,0-5.82,2.18-6.47,5.24l-7.33,34.49h4.12c3.12,0,5.82-2.18,6.47-5.24l7.33-34.49h-4.12ZM265.87,53.48c-3.12,0-5.82,2.18-6.46,5.24l-7.33,34.49h4.12c3.12,0,5.82-2.18,6.47-5.24l7.33-34.49h-4.13ZM315.64,53.48c-3.12,0-5.82,2.18-6.46,5.24l-7.33,34.49h4.12c3.12,0,5.82-2.18,6.47-5.24l7.33-34.49h-4.13ZM365.41,53.48c-3.12,0-5.82,2.18-6.46,5.24l-7.33,34.49h4.12c3.12,0,5.82-2.18,6.47-5.24l7.33-34.49h-4.13ZM431.72,53.48c-3.12,0-5.82,2.18-6.47,5.24l-7.33,34.49h4.12c3.12,0,5.82-2.18,6.47-5.24l7.33-34.49h-4.12ZM481.48,53.48c-3.12,0-5.82,2.18-6.47,5.24l-7.33,34.49h4.12c3.12,0,5.82-2.18,6.47-5.24l7.33-34.49h-4.12ZM531.25,53.48c-3.12,0-5.82,2.18-6.47,5.24l-7.33,34.49h4.12c3.12,0,5.82-2.18,6.47-5.24l7.33-34.49h-4.12ZM597.59,53.48c-3.12,0-5.82,2.18-6.47,5.24l-7.33,34.49h4.12c3.12,0,5.82-2.18,6.47-5.24l7.33-34.49h-4.12ZM185.76,40.23c-3.12,0-5.82,2.18-6.47,5.23l-4.52,21.26h4.12c3.12,0,5.82-2.18,6.47-5.24l4.52-21.26h-4.12ZM567.21,40.23c-3.12,0-5.82,2.18-6.47,5.23l-4.52,21.26h4.12c3.12,0,5.82-2.18,6.47-5.24l4.52-21.26h-4.12ZM335.05,40.22c-3.12,0-5.82,2.18-6.47,5.24l-4.52,21.26h4.12c3.12,0,5.82-2.18,6.47-5.24l4.52-21.26h-4.12ZM108.47,13.76c-3.12,0-5.82,2.18-6.46,5.24l-15.78,74.21h4.12c3.12,0,5.82-2.18,6.47-5.24l15.78-74.21h-4.13ZM207.99,13.76c-3.12,0-5.82,2.18-6.47,5.24l-15.77,74.21h4.12c3.12,0,5.82-2.18,6.47-5.24l15.78-74.21h-4.13ZM307.49,13.76c-3.12,0-5.82,2.18-6.47,5.24l-15.77,74.21h4.12c3.12,0,5.82-2.18,6.47-5.24l15.77-74.21s-4.12,0-4.12,0ZM423.59,13.76c-3.12,0-5.82,2.18-6.47,5.24l-15.77,74.21h4.12c3.12,0,5.82-2.18,6.47-5.24l15.77-74.21s-4.12,0-4.12,0ZM506.53,13.76c-3.12,0-5.82,2.18-6.46,5.24l-15.77,74.21h4.12c3.12,0,5.82-2.18,6.47-5.24l15.77-74.21h-4.13ZM58.53,13.75c-3.07.05-5.71,2.22-6.35,5.24l-7.33,34.49h4.12c3.12,0,5.82-2.18,6.47-5.24l7.33-34.49s-4.24,0-4.24,0ZM91.79,13.75c-3.07.05-5.71,2.22-6.35,5.24l-7.33,34.49h4.12c3.12,0,5.82-2.18,6.47-5.24l7.33-34.49s-4.24,0-4.24,0ZM141.56,13.75c-3.07.05-5.71,2.22-6.35,5.24l-7.33,34.49h4.12c3.12,0,5.82-2.18,6.47-5.24l7.33-34.49h-4.24ZM158.13,13.75c-3.07.05-5.71,2.22-6.35,5.24l-4.52,21.26h4.12c3.12,0,5.82-2.18,6.47-5.24l4.52-21.26h-4.24ZM174.72,13.75c-3.07.05-5.71,2.22-6.35,5.24l-7.33,34.49h4.12c3.12,0,5.82-2.18,6.47-5.24l7.33-34.49h-4.24,0ZM241.04,13.75c-3.07.05-5.71,2.22-6.35,5.24l-4.52,21.26h4.12c3.12,0,5.82-2.18,6.47-5.24l4.52-21.26h-4.24,0ZM274.21,13.75c-3.07.05-5.71,2.22-6.35,5.24l-4.52,21.26h4.12c3.12,0,5.82-2.18,6.47-5.24l4.52-21.26h-4.24ZM290.8,13.75c-3.07.05-5.71,2.22-6.35,5.24l-7.33,34.49h4.12c3.12,0,5.82-2.18,6.47-5.24l7.33-34.49h-4.24ZM357.15,13.75c-3.07.05-5.71,2.22-6.35,5.24l-7.33,34.49h4.12c3.12,0,5.82-2.18,6.47-5.24l7.33-34.49h-4.24ZM390.32,13.75c-3.07.05-5.71,2.22-6.35,5.24l-4.52,21.26h4.12c3.12,0,5.82-2.18,6.47-5.24l4.52-21.26h-4.24ZM406.89,13.75c-3.07.05-5.71,2.22-6.35,5.24l-7.33,34.49h4.12c3.12,0,5.82-2.18,6.47-5.24l7.33-34.49h-4.24ZM456.66,13.75c-3.07.05-5.71,2.22-6.35,5.24l-4.52,21.26h4.12c3.12,0,5.82-2.18,6.47-5.24l4.52-21.26h-4.24ZM473.23,13.75c-3.07.05-5.71,2.22-6.35,5.24l-7.33,34.49h4.12c3.12,0,5.82-2.18,6.47-5.24l7.33-34.49s-4.24,0-4.24,0ZM522.99,13.75c-3.07.05-5.71,2.22-6.35,5.24l-7.33,34.49h4.12c3.12,0,5.82-2.18,6.47-5.24l7.33-34.49s-4.24,0-4.24,0ZM556.15,13.75c-3.07.05-5.71,2.22-6.35,5.24l-7.33,34.49h4.12c3.12,0,5.82-2.18,6.47-5.24l7.33-34.49h-4.24ZM605.92,13.75c-3.07.05-5.71,2.22-6.35,5.24l-4.52,21.26h4.12c3.12,0,5.82-2.18,6.47-5.24l4.52-21.26h-4.24Z"/>
  <polygon class="st0" points=".06 93.21 488.51 93.21 505.2 13.76 .06 13.76 .06 93.21"/>
</svg>