<?xml version="1.0" encoding="UTF-8"?>
<svg id="Ebene_1" xmlns="http://www.w3.org/2000/svg" width="217mm" height="36.35mm" version="1.1" viewBox="0 0 615.12 103.04">
  <!-- Generator: Adobe Illustrator 30.3.0, SVG Export Plug-In . SVG Version: 2.1.3 Build 182)  -->
  <defs>
    <style>
      .st0 {
        fill: #649f1f;
      }
    </style>
  </defs>
  <path class="st0" d="M26.84,64.42c-3.12,0-5.82,2.18-6.47,5.24l-4.52,21.26h4.12c3.12,0,5.82-2.18,6.46-5.24l4.52-21.26h-4.12ZM93.21,64.42c-3.12,0-5.81,2.18-6.46,5.24l-4.52,21.26h4.12c3.12,0,5.82-2.18,6.47-5.24l4.52-21.26h-4.12ZM126.4,64.42c-3.12,0-5.82,2.18-6.47,5.24l-4.52,21.26h4.12c3.12,0,5.82-2.18,6.47-5.24l4.52-21.26h-4.12ZM142.96,64.42c-3.12,0-5.82,2.18-6.47,5.24l-4.52,21.26h4.12c3.12,0,5.82-2.18,6.47-5.24l4.52-21.26h-4.12ZM225.89,64.42c-3.12,0-5.82,2.18-6.47,5.24l-4.52,21.26h4.12c3.12,0,5.82-2.18,6.47-5.24l4.52-21.26h-4.12ZM325.41,64.42c-3.12,0-5.82,2.18-6.46,5.24l-4.52,21.26h4.12c3.12,0,5.82-2.18,6.47-5.24l4.52-21.26h-4.12ZM358.57,64.42c-3.12,0-5.82,2.18-6.47,5.24l-4.52,21.26h4.12c3.12,0,5.82-2.18,6.47-5.24l4.52-21.26h-4.12ZM441.5,64.42c-3.12,0-5.82,2.18-6.47,5.24l-4.52,21.26h4.12c3.12,0,5.82-2.18,6.47-5.24l4.52-21.26h-4.12ZM524.43,64.42c-3.12,0-5.82,2.18-6.47,5.24l-4.52,21.26h4.12c3.12,0,5.82-2.18,6.47-5.24l4.52-21.26h-4.12ZM557.6,64.42c-3.12,0-5.82,2.18-6.46,5.24l-4.52,21.26h4.12c3.12,0,5.82-2.18,6.47-5.24l4.52-21.26h-4.12ZM46.25,51.19c-3.12,0-5.82,2.18-6.46,5.24l-7.33,34.49h4.12c3.12,0,5.82-2.18,6.47-5.24l7.33-34.49h-4.12ZM195.54,51.19c-3.12,0-5.82,2.18-6.47,5.24l-7.33,34.49h4.12c3.12,0,5.82-2.18,6.47-5.24l7.33-34.49h-4.12ZM245.28,51.19c-3.12,0-5.82,2.18-6.46,5.24l-7.33,34.49h4.12c3.12,0,5.82-2.18,6.47-5.24l7.33-34.49h-4.12ZM295.05,51.19c-3.12,0-5.82,2.18-6.46,5.24l-7.33,34.49h4.12c3.12,0,5.82-2.18,6.47-5.24l7.33-34.49h-4.12ZM344.82,51.19c-3.12,0-5.82,2.18-6.46,5.24l-7.33,34.49h4.12c3.12,0,5.82-2.18,6.47-5.24l7.33-34.49h-4.12ZM411.13,51.19c-3.12,0-5.82,2.18-6.47,5.24l-7.33,34.49h4.12c3.12,0,5.82-2.18,6.47-5.24l7.33-34.49h-4.12ZM460.89,51.19c-3.12,0-5.82,2.18-6.47,5.24l-7.33,34.49h4.12c3.12,0,5.82-2.18,6.47-5.24l7.33-34.49h-4.12ZM510.66,51.19c-3.12,0-5.82,2.18-6.47,5.24l-7.33,34.49h4.12c3.12,0,5.82-2.18,6.47-5.24l7.33-34.49h-4.12ZM577,51.19c-3.12,0-5.82,2.18-6.47,5.24l-7.33,34.49h4.12c3.12,0,5.82-2.18,6.47-5.24l7.33-34.49h-4.12ZM165.17,37.94c-3.12,0-5.82,2.18-6.47,5.23l-4.52,21.26h4.12c3.12,0,5.82-2.18,6.47-5.24l4.52-21.26h-4.12ZM546.62,37.94c-3.12,0-5.82,2.18-6.47,5.23l-4.52,21.26h4.12c3.12,0,5.82-2.18,6.47-5.24l4.52-21.26h-4.12ZM314.46,37.93c-3.12,0-5.82,2.18-6.47,5.24l-4.52,21.26h4.12c3.12,0,5.82-2.18,6.47-5.24l4.52-21.26h-4.12ZM87.87,11.47c-3.12,0-5.82,2.18-6.46,5.24l-15.78,74.21h4.12c3.12,0,5.82-2.18,6.47-5.24l15.78-74.21h-4.12ZM187.4,11.47c-3.12,0-5.82,2.18-6.47,5.24l-15.77,74.21h4.12c3.12,0,5.82-2.18,6.47-5.24l15.78-74.21h-4.12ZM286.9,11.47c-3.12,0-5.82,2.18-6.47,5.24l-15.77,74.21h4.12c3.12,0,5.82-2.18,6.47-5.24l15.77-74.21h-4.12ZM403,11.47c-3.12,0-5.82,2.18-6.47,5.24l-15.77,74.21h4.12c3.12,0,5.82-2.18,6.47-5.24l15.77-74.21h-4.12ZM485.94,11.47c-3.12,0-5.82,2.18-6.46,5.24l-15.77,74.21h4.12c3.12,0,5.82-2.18,6.47-5.24l15.77-74.21h-4.12ZM602.02,11.47c-3.12,0-5.82,2.18-6.47,5.24l-15.77,74.21h4.12c3.12,0,5.82-2.18,6.47-5.24l15.77-74.21h-4.12ZM37.93,11.46c-3.07.05-5.71,2.22-6.35,5.24l-7.33,34.49h4.12c3.12,0,5.82-2.18,6.47-5.24l7.33-34.49h-4.24ZM71.19,11.46c-3.07.05-5.71,2.22-6.35,5.24l-7.33,34.49h4.12c3.12,0,5.82-2.18,6.47-5.24l7.33-34.49h-4.24ZM120.96,11.46c-3.07.05-5.71,2.22-6.35,5.24l-7.33,34.49h4.12c3.12,0,5.82-2.18,6.47-5.24l7.33-34.49h-4.23ZM137.53,11.46c-3.07.05-5.71,2.22-6.35,5.24l-4.52,21.26h4.12c3.12,0,5.82-2.18,6.47-5.24l4.52-21.26h-4.23ZM154.12,11.46c-3.07.05-5.71,2.22-6.35,5.24l-7.33,34.49h4.12c3.12,0,5.82-2.18,6.47-5.24l7.33-34.49h-4.24ZM220.45,11.46c-3.07.05-5.71,2.22-6.35,5.24l-4.52,21.26h4.12c3.12,0,5.82-2.18,6.47-5.24l4.52-21.26h-4.24ZM253.62,11.46c-3.07.05-5.71,2.22-6.35,5.24l-4.52,21.26h4.12c3.12,0,5.82-2.18,6.47-5.24l4.52-21.26h-4.23ZM270.21,11.46c-3.07.05-5.71,2.22-6.35,5.24l-7.33,34.49h4.12c3.12,0,5.82-2.18,6.47-5.24l7.33-34.49h-4.23ZM336.56,11.46c-3.07.05-5.71,2.22-6.35,5.24l-7.33,34.49h4.12c3.12,0,5.82-2.18,6.47-5.24l7.33-34.49h-4.23ZM369.73,11.46c-3.07.05-5.71,2.22-6.35,5.24l-4.52,21.26h4.12c3.12,0,5.82-2.18,6.47-5.24l4.52-21.26h-4.23ZM386.3,11.46c-3.07.05-5.71,2.22-6.35,5.24l-7.33,34.49h4.12c3.12,0,5.82-2.18,6.47-5.24l7.33-34.49h-4.23ZM436.07,11.46c-3.07.05-5.71,2.22-6.35,5.24l-4.52,21.26h4.12c3.12,0,5.82-2.18,6.47-5.24l4.52-21.26h-4.23ZM452.64,11.46c-3.07.05-5.71,2.22-6.35,5.24l-7.33,34.49h4.12c3.12,0,5.82-2.18,6.47-5.24l7.33-34.49h-4.24ZM502.4,11.46c-3.07.05-5.71,2.22-6.35,5.24l-7.33,34.49h4.12c3.12,0,5.82-2.18,6.47-5.24l7.33-34.49h-4.24ZM535.56,11.46c-3.07.05-5.71,2.22-6.35,5.24l-7.33,34.49h4.12c3.12,0,5.82-2.18,6.47-5.24l7.33-34.49h-4.23ZM585.33,11.46c-3.07.05-5.71,2.22-6.35,5.24l-4.52,21.26h4.12c3.12,0,5.82-2.18,6.47-5.24l4.52-21.26h-4.23Z"/>
  <path class="st0" d="M511.4,488.89c-2.76,0-5.14,1.93-5.71,4.62l-3.99,18.77h3.64c2.76,0,5.14-1.93,5.71-4.62l3.99-18.77h-3.64Z"/>
  <path class="st0" d="M484.59,477.21c-2.76,0-5.14,1.93-5.71,4.62l-6.47,30.45h3.64c2.76,0,5.14-1.93,5.71-4.62l6.47-30.45h-3.64Z"/>
  <path class="st0" d="M501.73,465.5c-2.75,0-5.13,1.93-5.71,4.62l-3.99,18.77h3.64c2.76,0,5.14-1.93,5.71-4.62l3.99-18.77h-3.64Z"/>
</svg>