<?xml version="1.0" encoding="UTF-8"?>
<svg id="Ebene_1" xmlns="http://www.w3.org/2000/svg" width="615.12" height="103.04" version="1.1" viewBox="0 0 615.12 103.04">
  <!-- Generator: Adobe Illustrator 30.3.0, SVG Export Plug-In . SVG Version: 2.1.3 Build 182)  -->
  <defs>
    <style>
      .st0 {
        fill: #fff;
      }
    </style>
  </defs>
  <path class="st0" d="M36.1,68.7c-4.02,0-7.49,2.81-8.33,6.76l-5.83,27.41h5.31c4.02,0,7.5-2.81,8.34-6.76l5.83-27.41h-5.32ZM78.89,68.7c-4.02,0-7.5,2.81-8.34,6.76l-5.83,27.41h5.31c4.02,0,7.5-2.81,8.34-6.76l5.83-27.41h-5.31ZM100.24,68.7c-4.02,0-7.5,2.81-8.34,6.76l-5.83,27.41h5.31c4.02,0,7.5-2.81,8.34-6.76l5.83-27.41h-5.31ZM207.17,68.7c-4.02,0-7.5,2.81-8.34,6.76l-5.83,27.41h5.31c4.02,0,7.5-2.81,8.34-6.76l5.83-27.41h-5.31ZM335.48,68.7c-4.02,0-7.5,2.81-8.33,6.76l-5.83,27.41h5.31c4.02,0,7.5-2.81,8.34-6.76l5.83-27.41h-5.32ZM378.24,68.7c-4.02,0-7.5,2.81-8.34,6.76l-5.83,27.41h5.31c4.02,0,7.5-2.81,8.34-6.76l5.83-27.41h-5.31ZM485.16,68.7c-4.02,0-7.5,2.81-8.34,6.76l-5.83,27.41h5.31c4.02,0,7.5-2.81,8.34-6.76l5.83-27.41h-5.31ZM592.09,68.7c-4.02,0-7.5,2.81-8.34,6.76l-5.83,27.41h5.31c4.02,0,7.5-2.81,8.34-6.76l5.83-27.41h-5.31ZM168.04,51.64c-4.02,0-7.5,2.81-8.34,6.76l-9.45,44.47h5.31c4.02,0,7.5-2.81,8.34-6.76l9.45-44.47h-5.31ZM232.17,51.64c-4.02,0-7.5,2.81-8.33,6.76l-9.45,44.47h5.31c4.02,0,7.5-2.81,8.34-6.76l9.45-44.47h-5.32ZM296.34,51.64c-4.02,0-7.5,2.81-8.33,6.76l-9.45,44.47h5.31c4.02,0,7.5-2.81,8.34-6.76l9.45-44.47h-5.32ZM360.51,51.64c-4.02,0-7.5,2.81-8.33,6.76l-9.45,44.47h5.31c4.02,0,7.5-2.81,8.34-6.76l9.45-44.47h-5.32ZM446,51.64c-4.02,0-7.5,2.81-8.34,6.76l-9.45,44.47h5.31c4.02,0,7.5-2.81,8.34-6.76l9.45-44.47h-5.31ZM510.16,51.64c-4.02,0-7.5,2.81-8.34,6.76l-9.45,44.47h5.31c4.02,0,7.5-2.81,8.34-6.76l9.45-44.47h-5.31ZM574.33,51.64c-4.02,0-7.5,2.81-8.34,6.76l-9.45,44.47h5.31c4.02,0,7.5-2.81,8.34-6.76l9.45-44.47h-5.31ZM128.88,34.56c-4.02,0-7.5,2.81-8.34,6.74l-5.83,27.41h5.31c4.02,0,7.5-2.81,8.34-6.76l5.83-27.41h-5.31ZM321.36,34.55c-4.02,0-7.5,2.81-8.34,6.76l-5.83,27.41h5.31c4.02,0,7.5-2.81,8.34-6.76l5.83-27.41h-5.31ZM29.21.43c-4.02,0-7.5,2.81-8.33,6.76L.54,102.87h5.31c4.02,0,7.5-2.81,8.34-6.76L34.54.43h-5.32ZM157.54.43c-4.02,0-7.5,2.81-8.34,6.76l-20.33,95.68h5.31c4.02,0,7.5-2.81,8.34-6.76L162.87.43h-5.32ZM285.83.43c-4.02,0-7.5,2.81-8.34,6.76l-20.33,95.68h5.31c4.02,0,7.5-2.81,8.34-6.76L291.14.43s-5.31,0-5.31,0ZM435.52.43c-4.02,0-7.5,2.81-8.34,6.76l-20.33,95.68h5.31c4.02,0,7.5-2.81,8.34-6.76L440.83.43s-5.31,0-5.31,0ZM542.46.43c-4.02,0-7.5,2.81-8.33,6.76l-20.33,95.68h5.31c4.02,0,7.5-2.81,8.34-6.76L547.78.43h-5.32ZM71.88.42c-3.96.06-7.36,2.86-8.19,6.76l-9.45,44.47h5.31c4.02,0,7.5-2.81,8.34-6.76L77.35.42h-5.47ZM93.24.42c-3.96.06-7.36,2.86-8.19,6.76l-5.83,27.41h5.31c4.02,0,7.5-2.81,8.34-6.76L98.71.42h-5.47ZM114.63.42c-3.96.06-7.36,2.86-8.19,6.76l-9.45,44.47h5.31c4.02,0,7.5-2.81,8.34-6.76L120.1.42h-5.47,0ZM200.15.42c-3.96.06-7.36,2.86-8.19,6.76l-5.83,27.41h5.31c4.02,0,7.5-2.81,8.34-6.76L205.62.42h-5.47,0ZM242.92.42c-3.96.06-7.36,2.86-8.19,6.76l-5.83,27.41h5.31c4.02,0,7.5-2.81,8.34-6.76L248.39.42h-5.47ZM264.31.42c-3.96.06-7.36,2.86-8.19,6.76l-9.45,44.47h5.31c4.02,0,7.5-2.81,8.34-6.76L269.78.42h-5.47ZM349.86.42c-3.96.06-7.36,2.86-8.19,6.76l-9.45,44.47h5.31c4.02,0,7.5-2.81,8.34-6.76L355.33.42h-5.47ZM392.63.42c-3.96.06-7.36,2.86-8.19,6.76l-5.83,27.41h5.31c4.02,0,7.5-2.81,8.34-6.76l5.83-27.41h-5.47ZM413.99.42c-3.96.06-7.36,2.86-8.19,6.76l-9.45,44.47h5.31c4.02,0,7.5-2.81,8.34-6.76L419.46.42h-5.47ZM478.16.42c-3.96.06-7.36,2.86-8.19,6.76l-5.83,27.41h5.31c4.02,0,7.5-2.81,8.34-6.76l5.83-27.41h-5.47ZM499.52.42c-3.96.06-7.36,2.86-8.19,6.76l-9.45,44.47h5.31c4.02,0,7.5-2.81,8.34-6.76L504.99.42s-5.47,0-5.47,0ZM563.68.42c-3.96.06-7.36,2.86-8.19,6.76l-9.45,44.47h5.31c4.02,0,7.5-2.81,8.34-6.76L569.15.42s-5.47,0-5.47,0ZM606.44.42c-3.96.06-7.36,2.86-8.19,6.76l-9.45,44.47h5.31c4.02,0,7.5-2.81,8.34-6.76L611.9.42h-5.47Z"/>
</svg>