<?xml version="1.0" encoding="UTF-8"?>
<svg id="Ebene_1" xmlns="http://www.w3.org/2000/svg" width="217mm" height="255.37mm" version="1.1" viewBox="0 0 615.12 723.89">
  <!-- Generator: Adobe Illustrator 30.3.0, SVG Export Plug-In . SVG Version: 2.1.3 Build 182)  -->
  <defs>
    <style>
      .st0 {
        fill: none;
        stroke: #fff;
        stroke-width: 3;
      }
    </style>
  </defs>
  <path class="st0" d="M396.92,484c-27.59,0-51.43,19.3-57.17,46.3l-39.96,187.99h36.47c27.6,0,51.45-19.3,57.19-46.3l39.95-187.99h-36.48Z"/>
  <path class="st0" d="M128.41,366.99c-27.6,0-51.44,19.3-57.17,46.3L6.41,718.29h36.46c27.61,0,51.45-19.3,57.2-46.3l64.82-305h-36.48Z"/>
  <path class="st0" d="M568.53,366.99c-27.59,0-51.44,19.3-57.17,46.3l-64.83,305h36.46c27.61,0,51.46-19.3,57.19-46.3l64.82-305h-36.47Z"/>
  <path class="st0" d="M300.06,249.74c-27.59,0-51.43,19.3-57.18,46.3l-39.95,188.01h36.47c27.6,0,51.44-19.32,57.19-46.31l39.94-188h-36.47Z"/>
  <path class="st0" d="M532.96,15.64c-52-3-87.98,19.62-93.64,46.31l-64.83,305.01h36.47c27.6,0,51.45-19.32,57.19-46.31L532.96,15.64"/>
</svg>