<?xml version="1.0" encoding="UTF-8"?>
<svg id="Ebene_1" xmlns="http://www.w3.org/2000/svg" width="615.12" height="723.88" xmlns:xlink="http://www.w3.org/1999/xlink" version="1.1" viewBox="0 0 615.12 723.88">
  <!-- Generator: Adobe Illustrator 30.3.0, SVG Export Plug-In . SVG Version: 2.1.3 Build 182)  -->
  <defs>
    <style>
      .st0 {
        fill: url(#Unbenannter_Verlauf_6);
      }

      .st1 {
        fill: #fff;
      }
    </style>
    <linearGradient id="Unbenannter_Verlauf_6" data-name="Unbenannter Verlauf 6" x1="440.9" y1="118.44" x2="157.81" y2="641.82" gradientUnits="userSpaceOnUse">
      <stop offset="0" stop-color="#e94772"/>
      <stop offset="1" stop-color="#df015e"/>
    </linearGradient>
  </defs>
  <path class="st0" d="M9.21,198.56v337.18c0,1.84.98,3.54,2.57,4.46l292.01,168.59c1.59.92,3.56.92,5.15,0l292.01-168.59c1.59-.92,2.57-2.62,2.57-4.46V198.56c0-1.84-.98-3.54-2.57-4.46L308.95,25.51c-1.59-.92-3.56-.92-5.15,0L11.79,194.1c-1.59.92-2.57,2.62-2.57,4.46Z"/>
  <g>
    <path class="st1" d="M208.73,250.11c24.55,0,44.33,5.58,59.35,16.74,15.02,11.16,22.53,26.21,22.53,45.15,0,13.09-3.63,24.75-10.87,34.98-7.25,10.23-18.93,19.37-35.07,27.44,19.17,10.29,32.93,21.01,41.29,32.17s12.54,23.4,12.54,36.73c0,21.04-8.24,37.96-24.72,50.76-16.48,12.8-38.17,19.2-65.05,19.2s-50.09-5.96-66.1-17.88-24.02-28.81-24.02-50.67c0-14.61,3.88-27.59,11.66-38.92,7.77-11.34,20.25-21.33,37.43-29.98-14.61-9.23-25.13-19.11-31.56-29.63-6.43-10.52-9.64-22.03-9.64-34.54,0-18.35,7.6-33.19,22.79-44.53,15.2-11.34,35.01-17.01,59.44-17.01ZM168.75,441.57c0,10.06,3.51,17.88,10.52,23.49s16.6,8.42,28.75,8.42c13.44,0,23.49-2.89,30.16-8.68,6.66-5.79,9.99-13.41,9.99-22.88,0-7.83-3.31-15.17-9.91-22.01-6.6-6.84-17.33-14.11-32.17-21.83-24.9,11.46-37.35,25.95-37.35,43.48ZM208.38,289.74c-9.23,0-16.69,2.37-22.35,7.1-5.67,4.73-8.5,11.07-8.5,19.02,0,7.01,2.25,13.3,6.75,18.85,4.5,5.55,12.65,11.25,24.46,17.1,11.45-5.38,19.46-10.87,24.02-16.48,4.56-5.61,6.84-12.1,6.84-19.46,0-8.06-2.92-14.44-8.77-19.11-5.84-4.67-13.33-7.01-22.44-7.01Z"/>
    <path class="st1" d="M494.13,381.61c0,44.77-7.34,77.91-22,99.41-14.67,21.51-37.26,32.26-67.77,32.26s-51.87-11.1-66.89-33.31c-15.02-22.21-22.53-54.99-22.53-98.36s7.3-78.58,21.92-100.03c14.61-21.45,37.11-32.17,67.5-32.17s51.92,11.22,67.07,33.66c15.14,22.44,22.71,55.29,22.71,98.54ZM368.77,381.61c0,31.44,2.72,53.98,8.15,67.59,5.43,13.62,14.58,20.43,27.44,20.43s21.74-6.9,27.35-20.69c5.61-13.79,8.42-36.23,8.42-67.33s-2.84-54.03-8.5-67.76c-5.67-13.73-14.76-20.6-27.27-20.6s-21.86,6.87-27.35,20.6c-5.5,13.74-8.24,36.32-8.24,67.76Z"/>
  </g>
  <g>
    <path class="st1" d="M196.9,155.4h14c6.38,0,11.01.91,13.89,2.72s4.32,4.7,4.32,8.66c0,2.68-.63,4.89-1.89,6.61-1.26,1.72-2.94,2.76-5.03,3.11v.31c2.85.63,4.91,1.82,6.17,3.57s1.9,4.06,1.9,6.95c0,4.1-1.48,7.3-4.45,9.6-2.96,2.3-6.99,3.44-12.08,3.44h-16.83v-44.98ZM206.43,173.22h5.54c2.58,0,4.46-.4,5.61-1.2,1.16-.8,1.74-2.12,1.74-3.97,0-1.72-.63-2.96-1.89-3.71-1.26-.75-3.26-1.12-5.98-1.12h-5.02v10ZM206.43,180.79v11.72h6.22c2.62,0,4.56-.5,5.81-1.51s1.88-2.54,1.88-4.62c0-3.73-2.67-5.6-8-5.6h-5.91Z"/>
    <path class="st1" d="M280.06,177.83c0,7.44-1.85,13.17-5.54,17.16-3.69,4-8.99,6-15.88,6s-12.18-2-15.87-6c-3.69-4-5.54-9.74-5.54-17.23s1.85-13.21,5.55-17.16c3.7-3.95,9.01-5.92,15.92-5.92s12.2,1.99,15.86,5.97,5.49,9.7,5.49,17.17ZM247.23,177.83c0,5.02.95,8.81,2.86,11.35,1.91,2.54,4.76,3.81,8.55,3.81,7.61,0,11.41-5.06,11.41-15.17s-3.78-15.2-11.35-15.2c-3.79,0-6.65,1.27-8.58,3.83-1.93,2.55-2.89,6.34-2.89,11.37Z"/>
    <path class="st1" d="M329.29,200.38h-12.12l-19.57-34.03h-.28c.39,6.01.59,10.3.59,12.86v21.17h-8.52v-44.98h12.03l19.54,33.69h.21c-.31-5.84-.46-9.98-.46-12.4v-21.29h8.58v44.98Z"/>
    <path class="st1" d="M377.22,155.4v29.11c0,3.32-.74,6.24-2.23,8.74-1.49,2.5-3.64,4.42-6.45,5.75s-6.13,2-9.97,2c-5.78,0-10.28-1.48-13.47-4.44-3.2-2.97-4.8-7.02-4.8-12.17v-28.98h9.51v27.54c0,3.46.7,6.01,2.09,7.63s3.7,2.43,6.92,2.43,5.38-.82,6.79-2.45c1.4-1.63,2.11-4.19,2.11-7.68v-27.48h9.51Z"/>
    <path class="st1" d="M414.78,187.89c0,4.06-1.46,7.26-4.38,9.6-2.92,2.34-6.99,3.51-12.2,3.51-4.8,0-9.04-.9-12.74-2.71v-8.86c3.04,1.35,5.61,2.31,7.71,2.86,2.1.56,4.02.83,5.77.83,2.09,0,3.69-.4,4.81-1.2s1.68-1.99,1.68-3.57c0-.88-.25-1.67-.74-2.35-.49-.69-1.21-1.35-2.17-1.99-.95-.63-2.9-1.65-5.83-3.04-2.75-1.29-4.81-2.53-6.18-3.72s-2.47-2.57-3.29-4.15c-.82-1.58-1.23-3.43-1.23-5.54,0-3.98,1.35-7.11,4.05-9.38s6.42-3.42,11.18-3.42c2.34,0,4.57.28,6.69.83,2.12.55,4.34,1.33,6.66,2.34l-3.08,7.42c-2.4-.99-4.38-1.67-5.95-2.06-1.57-.39-3.11-.58-4.63-.58-1.8,0-3.19.42-4.15,1.26s-1.45,1.94-1.45,3.29c0,.84.19,1.58.59,2.2.39.63,1.01,1.23,1.86,1.82.85.58,2.87,1.63,6.05,3.15,4.2,2.01,7.09,4.02,8.65,6.05s2.34,4.5,2.34,7.43Z"/>
  </g>
</svg>