<?xml version="1.0" encoding="UTF-8"?>
<svg id="Ebene_1" data-name="Ebene 1" xmlns="http://www.w3.org/2000/svg" viewBox="0 0 100 100">
  <defs>
    <style>
      .cls-1, .cls-2 {
        fill: none;
      }

      .cls-2 {
        stroke: #263b4f;
        stroke-linecap: round;
        stroke-linejoin: round;
        stroke-width: 5px;
      }
    </style>
  </defs>
  <g id="play">
    <path id="Pfad_57" data-name="Pfad 57" class="cls-2" d="M60.73,46.49l-13.52-9.03c-1.94-1.3-4.57-.77-5.87,1.17-.47.7-.71,1.52-.71,2.36v18.02c0,2.34,1.88,4.24,4.22,4.24.84,0,1.66-.25,2.36-.71l13.52-9.03c1.94-1.28,2.47-3.89,1.19-5.83-.31-.47-.72-.88-1.19-1.19Z"/>
    <path id="Pfad_58" data-name="Pfad 58" class="cls-2" d="M87.17,50c0,21.03-17.05,38.08-38.08,38.08S11.01,71.03,11.01,50,28.06,11.92,49.09,11.92s38.08,17.05,38.08,38.08Z"/>
    <path id="Pfad_59" data-name="Pfad 59" class="cls-1" d="M-1.68-.77h101.54v101.54H-1.68V-.77Z"/>
  </g>
</svg>