<?xml version="1.0" encoding="utf-8"?>
<!-- Generator: Adobe Illustrator 27.8.0, SVG Export Plug-In . SVG Version: 6.00 Build 0)  -->
<svg version="1.1" id="Ebene_1" xmlns="http://www.w3.org/2000/svg" xmlns:xlink="http://www.w3.org/1999/xlink" x="0px" y="0px"
	 viewBox="0 0 1000 1000" style="enable-background:new 0 0 1000 1000;" xml:space="preserve">
<style type="text/css">
	.st0{fill:none;stroke:#000000;stroke-width:19.6797;stroke-miterlimit:10;}
	.st1{clip-path:url(#SVGID_00000095329831614543189420000013932352969490820224_);}
	.st2{fill:#FF3162;}
	.st3{fill:none;stroke:#FF3162;stroke-width:43.4005;stroke-miterlimit:10;}
</style>
<rect x="-2673" y="-48" class="st0" width="983" height="983"/>
<g>
	<defs>
		<rect id="SVGID_1_" x="13.1" y="25.4" width="971.9" height="955"/>
	</defs>
	<clipPath id="SVGID_00000183243726116008527100000011395314213729205939_">
		<use xlink:href="#SVGID_1_"  style="overflow:visible;"/>
	</clipPath>
	<g id="Gruppe_1019" style="clip-path:url(#SVGID_00000183243726116008527100000011395314213729205939_);">
		<path id="Pfad_662" class="st2" d="M229.4,516.6h-18.2v36.2h19.2c6.3,0.5,12.6-1.1,17.9-4.7c4.1-3.6,6.2-8.8,5.8-14.2
			C254.1,522.3,245.8,516.6,229.4,516.6"/>
		<path id="Pfad_663" class="st2" d="M245.6,489.5c3.8-2.9,5.8-7.5,5.4-12.2c0.4-4.6-1.9-9-5.8-11.4c-5.8-2.7-12.1-3.9-18.5-3.5
			h-15.5v30.8h17.1C234.3,493.7,240.3,492.4,245.6,489.5"/>
		<path id="Pfad_664" class="st2" d="M370.5,460.6c-10.2-0.7-20.1,3.7-26.5,11.8c-11.9,21.8-11.9,48.2-0.1,70.1
			c6.3,8.1,16.2,12.5,26.4,11.8c23.5,0,35.2-15.6,35.2-46.8C405.5,476.3,393.8,460.6,370.5,460.6"/>
		<path id="Pfad_665" class="st2" d="M982.7,449.5c-9.1-39.1-44-66.8-84.2-66.8H99.5c-47.7,0-86.4,38.7-86.4,86.4v75.6
			c0,47.7,38.7,86.4,86.4,86.4h799.1c47.7,0,86.4-38.6,86.4-86.3c0,0,0,0,0-0.1V469C985,462.5,984.3,455.9,982.7,449.5 M270.9,566.4
			c-10.9,7.6-24,11.4-37.2,10.6h-51.9V438.3h43.1c14.8-1.1,29.6,1.8,42.9,8.4c9,5.8,14.1,16,13.3,26.7c0.3,7.3-1.7,14.4-5.8,20.4
			c-3.7,5.2-9.3,8.6-15.5,9.5v0.9c7.5,1.2,14.3,5.1,19.1,11.1c4.2,6.4,6.2,13.9,5.8,21.4C285.1,548.3,280,559.4,270.9,566.4
			 M419.3,560.4c-12.9,12.9-30.7,19.7-49,18.5c-18.2,1.2-36.1-5.6-49-18.5c-12.3-14.9-18.4-33.9-17.1-53.1
			c-1.3-19.2,4.8-38.2,17.1-52.9c13-12.8,30.9-19.4,49.1-18.2c18.2-1.2,36,5.5,48.9,18.4C442,486.2,442,528.8,419.3,560.4
			 M586.3,577h-37.4l-60.4-104.9h-0.9c1.2,18.5,1.8,31.7,1.8,39.7V577h-26.3V438.3h37.1l60.3,103.9h0.7c-0.9-18-1.4-30.8-1.4-38.2
			v-65.7h26.5V577z M732.2,528c0.2,9.4-2.2,18.8-6.9,27c-4.7,7.8-11.6,14-19.9,17.8c-9.7,4.3-20.2,6.4-30.8,6.2
			c-15.1,0.9-30-4-41.6-13.7c-10.1-9.8-15.5-23.5-14.8-37.5v-89.4h29.3v85c-0.7,8.4,1.6,16.7,6.4,23.5c5.7,5.5,13.5,8.3,21.4,7.5
			c7.7,0.7,15.4-2,20.9-7.5c4.9-6.9,7.2-15.3,6.5-23.7v-84.8h29.3L732.2,528z M832.6,568.1c-10.9,7.8-24.2,11.6-37.6,10.8
			c-13.6,0.3-27-2.6-39.3-8.4v-27.3c7.7,3.6,15.6,6.5,23.8,8.8c5.8,1.6,11.8,2.5,17.8,2.6c5.2,0.3,10.4-1,14.9-3.7
			c3.5-2.5,5.5-6.7,5.2-11c0-2.6-0.8-5.1-2.3-7.3c-1.8-2.4-4.1-4.5-6.7-6.1c-5.8-3.5-11.8-6.6-18-9.4c-6.8-3-13.3-6.8-19.1-11.5
			c-4.2-3.6-7.6-7.9-10.2-12.8c-2.6-5.3-3.9-11.2-3.8-17.1c-0.5-11.1,4.1-21.7,12.5-28.9c9.9-7.5,22.1-11.3,34.5-10.5
			c7,0,13.9,0.9,20.6,2.6c7,1.9,13.9,4.3,20.5,7.2l-9.5,22.8c-6-2.5-12.1-4.7-18.4-6.4c-4.7-1.2-9.5-1.8-14.3-1.8
			c-4.6-0.3-9.2,1.1-12.8,3.9c-2.9,2.5-4.6,6.3-4.5,10.2c-0.1,2.4,0.6,4.7,1.8,6.8c1.5,2.2,3.5,4.1,5.7,5.6c6,3.6,12.2,6.9,18.7,9.7
			c10.2,4.2,19.3,10.5,26.7,18.7c4.9,6.6,7.5,14.7,7.2,22.9C846.6,550,841.6,561,832.6,568.1"/>
		<path id="Pfad_666" class="st3" d="M886.1,726.1V279.8L499.6,56.6L113,279.8v446.3l386.5,223.1L886.1,726.1z"/>
	</g>
</g>
</svg>
